<?xml version="1.0" encoding="utf-8"?><!DOCTYPE svg PUBLIC "-//W3C//DTD SVG 1.1//EN" "http://www.w3.org/Graphics/SVG/1.1/DTD/svg11.dtd"><svg viewBox="0 0 600 600" xmlns="http://www.w3.org/2000/svg" xmlns:xlink="http://www.w3.org/1999/xlink"><style>:root>svg{display:none}:root>svg:target{display:block}</style><svg viewBox="0 -17 450 450" id="brand" xmlns="http://www.w3.org/2000/svg"><path d="M67.453 415.945h334.238c26.47 0 48.309-21.582 48.309-48.05V143.43c-.145-26.364-21.414-47.735-47.777-48l-70.782-.555a79.85 79.85 0 00-65.753-35.46 79.84 79.84 0 00-66.297 34.433L114 93.176V69.648c0-25.53-20.898-46.703-46.328-46.703h-.23c-36.176 0-65.723 29-67.07 65H0v257h.406c-.062 1-.406 2.36-.406 3.551v.117c.148 37.172 30.281 67.254 67.453 67.332zM207.82 110.773c12.422-24.886 39.512-38.878 66.996-34.601 27.48 4.273 49.043 25.836 53.32 53.316 4.274 27.485-9.718 54.575-34.605 66.996-.082.043-.379.094-.46.137a8.204 8.204 0 00-5.071 7.356v12.968h-15v-38.332c9.883-3.847 15.625-14.187 13.668-24.613-1.957-10.422-11.063-17.973-21.668-17.973s-19.71 7.551-21.668 17.973c-1.957 10.426 3.785 20.766 13.668 24.613v38.332h-15v-12.968a8.204 8.204 0 00-5.07-7.356c-.082-.043-.27-.094-.356-.137-31.566-15.765-44.426-54.097-28.754-85.71zm51.133 47.305a6.047 6.047 0 116.047 6.047 6.054 6.054 0 01-6.047-6.047zM288 232.945v9h-46v-9zm.344 25a12.606 12.606 0 01-12.356 11h-21.976a12.606 12.606 0 01-12.356-11zM16 90.613c0-28.234 23.227-51.668 51.46-51.668h.118C84.278 38.945 98 52.941 98 69.648v181.41c0 16.704-13.723 29.887-30.414 29.887h-.07C47.02 280.945 29 290.582 16 305.102zm0 257.89c.164-28.394 23.129-51.374 51.523-51.558h.055c25.524 0 46.422-20.36 46.422-45.886V109.176l77.063.597c-14.786 37.102.148 79.415 34.937 99.024v47.55c0 15.68 12.324 28.598 28.012 28.598h21.976c15.688 0 28.012-12.918 28.012-28.597v-47.57c34.45-19.305 49.563-60.926 35.535-97.837l62.508.489c17.594.168 31.812 14.402 31.957 32v224.465c-.16 17.734-14.57 32.03-32.309 32.05H67.461c-28.34-.062-51.32-22.98-51.461-51.324zm0 0M265 44.094a8 8 0 008-8V8a8 8 0 00-16 0v28.094a8 8 0 008 8zm0 0"/><path d="M366.668 144.945h27.758a8 8 0 000-16h-27.758a8 8 0 000 16zm0 0M135.574 144.945h27.758a8 8 0 000-16h-27.758a8 8 0 000 16zm0 0M335.898 73.188a7.97 7.97 0 005.66-2.344l19.399-19.399a7.998 7.998 0 00-.035-11.28 7.997 7.997 0 00-11.277-.032L330.242 59.53a8.007 8.007 0 00-1.734 8.719 8.003 8.003 0 007.394 4.938zm0 0M188.441 70.848c3.125 3.125 8.192 3.125 11.317 0s3.125-8.188 0-11.313l-19.399-19.402a7.997 7.997 0 00-11.214.101 7.996 7.996 0 00-.098 11.211zm0 0"/></svg><svg viewBox="0 0 60 60" id="des" xmlns="http://www.w3.org/2000/svg"><g fill="#000" fill-rule="nonzero"><path d="M51.768 44c.318-1.686.31-3.417-.024-5.1l4.58-11.053a.17.17 0 000-.022 18.78 18.78 0 013.215-5.582c.345-.364.483-.877.369-1.365l-1.878-8.11a.979.979 0 00-.1-.242c-.008-.015-.011-.033-.019-.047-.008-.014-.043-.048-.063-.074a1.008 1.008 0 00-.141-.165.929.929 0 00-.109-.066 1.016 1.016 0 00-.155-.094.988.988 0 00-.234-.057c-.023 0-.043-.015-.066-.017a1 1 0 00-.551.123c-.015.008-.033.011-.048.02h-.01l-7.061 4.407a1.492 1.492 0 00-.706 1.23 18.77 18.77 0 01-1.681 6.233v.011l-2.289 5.533a13.414 13.414 0 00-3.572-1.29c.472-3.255.645-6.546.518-9.833a10.914 10.914 0 002.482-8.012C43.6 4.6 38.333.391 38.108.214a1 1 0 00-1.585 1.043c.515 1.934.069 3.975-3.735 8.172a5.852 5.852 0 00-1.371 6.377 7.763 7.763 0 001.424 2.3 70.05 70.05 0 00-.563 4.433 50.082 50.082 0 00-.174 7.092 13.606 13.606 0 00-2.49 1.735l-4.85-20.74c0-.021-.02-.036-.026-.055a.948.948 0 00-.07-.193l-4.954-9.149a2.309 2.309 0 00-4.338 1.016L15 12.64c0 .075.009.15.025.223v.045l4.948 21.117c-.78.034-1.555.15-2.312.345l-5.443-13.145a2.021 2.021 0 00-2.61-1.069L1.289 23.6a2.006 2.006 0 00-1.083 2.613l7.382 17.808A7.995 7.995 0 008 60h44a8 8 0 10-.232-16zm-1.019-25.884l4.192-2.616-1.484 3.584a1 1 0 001.848.766l1.484-3.584 1.111 4.813a19.78 19.78 0 00-2.9 4.787 4.113 4.113 0 01-5.59-2.312 19.754 19.754 0 001.339-5.438zm-2.3 7.851a6.091 6.091 0 002.493 1.815 6.345 6.345 0 002.447.516 5.3 5.3 0 00.606-.037l-3.191 7.7a13.572 13.572 0 00-4.294-5.309l1.939-4.685zm-13.7-7.142l5.024.307c.031.934.02 1.9-.011 2.881a21.02 21.02 0 01-5.01-.242c-.126-.018-.249-.032-.374-.049.1-.942.222-1.896.369-2.897h.002zm-.477-8.053c2.655-2.929 4.031-5.182 4.351-7.3a13.374 13.374 0 013.609 7.168 8.96 8.96 0 01-2.024 6.512c-1.975-.12-3.929-.24-5.861-.36a4.171 4.171 0 01-.077-6.02h.002zm-.076 12.943l.29.038c1.289.2 2.59.31 3.893.331.414 0 .85-.033 1.287-.067a62.884 62.884 0 01-.429 4.02c-.247-.013-.489-.037-.737-.037-1.51.003-3.008.26-4.432.763a48.264 48.264 0 01.126-5.048h.002zm-7.735 11.694L23.6 23.222a1 1 0 00-1.947.456l2.571 10.969a11.326 11.326 0 00-2.18-.543l-4.389-18.73c.615.28 1.282.425 1.958.426.063 0 .13-.009.194-.012l.707 3.019a1 1 0 101.947-.456l-.708-3.021A4.736 4.736 0 0023.5 14l4.462 19.079a13.415 13.415 0 00-1.501 2.33zm-6.11-21.7a3.32 3.32 0 01-3.339-1.337l.127-3.522c.348.065.701.098 1.055.1.342.001.683-.036 1.016-.113a5.094 5.094 0 001.854-.922l1.684 3.108a3.317 3.317 0 01-2.397 2.688v-.002zM17.612 2.027a.312.312 0 01.344.154L20.1 6.146c-.387.35-.849.606-1.35.75a3.4 3.4 0 01-1.541-.073l.163-4.506a.31.31 0 01.24-.29zM10.375 22l.764 1.846-3.7 1.532a1 1 0 00.768 1.846l3.7-1.533.765 1.848-1.851.767a1 1 0 10.766 1.848l1.851-.767.765 1.848L10.5 32.77a1 1 0 10.766 1.848l3.7-1.532.809 1.953A11.609 11.609 0 009.3 42.92L2.052 25.444 10.375 22zM52 58H8a6 6 0 111.711-11.752A1 1 0 0011 45.309 9.5 9.5 0 0126.2 37.9a1 1 0 001.533-.45A11.5 11.5 0 0150 41.5a11.394 11.394 0 01-.505 3.374 1 1 0 001.17 1.272A6.246 6.246 0 0152 46a6 6 0 110 12z"/><path d="M38.685 15.7a1 1 0 00.8-.395 7.5 7.5 0 001.33-5.888 1 1 0 10-1.932.515 5.555 5.555 0 01-.992 4.166 1 1 0 00.8 1.6l-.006.002zM37.37 46a4.916 4.916 0 00-2.145.5 6 6 0 00-10.365 5.89 1 1 0 001.84-.784A4.074 4.074 0 0126.37 50a4 4 0 014-4 3.96 3.96 0 013.615 2.3c.022.033.045.064.07.094.016.034.033.068.053.1.018.022.044.032.064.053a.954.954 0 00.155.13c.05.038.104.072.16.1a.99.99 0 00.18.056.919.919 0 00.188.029c.13-.001.259-.023.382-.064a.755.755 0 00.079-.019.9.9 0 00.093-.069 1.04 1.04 0 00.105-.054A2.949 2.949 0 0137.37 48a3 3 0 012.72 1.745 1 1 0 001.82-.83A5 5 0 0037.37 46zM17.684 39.051C17.533 39.1 14 40.322 14 44a1 1 0 002 0 3.438 3.438 0 012.322-3.053 1.002 1.002 0 00-.638-1.9v.004zM31.757 37.97a1 1 0 001.212-.727A4.265 4.265 0 0137.005 34 1 1 0 0037 32a6.229 6.229 0 00-5.97 4.757 1 1 0 00.727 1.213z"/></g></svg><svg viewBox="0 0 605.667 605.667" id="dev" xmlns="http://www.w3.org/2000/svg"><path d="M214.944 198.935c3.961 3.825 10.256 3.771 14.15-.123s3.948-10.189.123-14.15l-53.428-53.428 53.428-53.428a10.096 10.096 0 00-4.456-17.026 10.095 10.095 0 00-9.817 2.753l-60.564 60.564c-3.941 3.942-3.941 10.331 0 14.273zM376.449 198.935c3.942 3.941 10.331 3.941 14.273 0l60.564-60.564c3.941-3.942 3.941-10.331 0-14.273l-60.564-60.564c-3.961-3.825-10.256-3.771-14.15.123s-3.948 10.189-.123 14.15l53.428 53.428-53.428 53.428c-3.94 3.941-3.94 10.33 0 14.272zM262.457 201.893a10.092 10.092 0 008.408-4.492l80.752-121.129c3.094-4.638 1.842-10.906-2.796-14s-10.906-1.842-14 2.796l-80.752 121.129a10.094 10.094 0 008.388 15.696zM100.952 262.457h20.188c5.575 0 10.094-4.519 10.094-10.094s-4.519-10.094-10.094-10.094h-20.188c-5.575 0-10.094 4.519-10.094 10.094s4.519 10.094 10.094 10.094zM161.517 262.457h343.198c5.575 0 10.094-4.519 10.094-10.094s-4.519-10.094-10.094-10.094H161.517c-5.575 0-10.094 4.519-10.094 10.094s4.519 10.094 10.094 10.094zM100.952 323.021h20.188c5.575 0 10.094-4.519 10.094-10.094s-4.519-10.094-10.094-10.094h-20.188c-5.575 0-10.094 4.519-10.094 10.094s4.519 10.094 10.094 10.094zM504.715 302.833H373.492c-5.575 0-10.094 4.519-10.094 10.094s4.519 10.094 10.094 10.094h131.223c5.575 0 10.094-4.519 10.094-10.094 0-5.574-4.52-10.094-10.094-10.094zM262.457 302.833c-5.575 0-10.094 4.519-10.094 10.094s4.519 10.094 10.094 10.094h70.658c5.575 0 10.094-4.519 10.094-10.094s-4.519-10.094-10.094-10.094zM161.517 323.021h60.564c5.575 0 10.094-4.519 10.094-10.094s-4.519-10.094-10.094-10.094h-60.564c-5.575 0-10.094 4.519-10.094 10.094-.001 5.575 4.519 10.094 10.094 10.094zM100.952 383.586h20.188c5.575 0 10.094-4.519 10.094-10.094s-4.519-10.094-10.094-10.094h-20.188c-5.575 0-10.094 4.519-10.094 10.094s4.519 10.094 10.094 10.094zM504.715 363.398h-70.658c-5.575 0-10.094 4.519-10.094 10.094s4.519 10.094 10.094 10.094h70.658c5.575 0 10.094-4.519 10.094-10.094s-4.52-10.094-10.094-10.094zM161.517 383.586H393.68c5.575 0 10.094-4.519 10.094-10.094s-4.519-10.094-10.094-10.094H161.517c-5.575 0-10.094 4.519-10.094 10.094s4.519 10.094 10.094 10.094z"/><path d="M575.373.012H30.294C13.081.561-.453 14.916.012 32.131v440.464c-.464 17.215 13.069 31.57 30.282 32.119h175.455l-20.188 40.376h-34.138c-16.724 0-30.282 13.558-30.282 30.282s13.558 30.282 30.282 30.282h302.822c16.724 0 30.282-13.558 30.282-30.282s-13.558-30.282-30.282-30.282h-34.138l-20.188-40.376h175.455c17.213-.549 30.746-14.904 30.282-32.119V32.131c.463-17.215-13.07-31.57-30.283-32.119zM30.294 20.2h545.079c6.022.622 10.478 5.889 10.094 11.931v391.831H20.2V32.131c-.385-6.042 4.071-11.309 10.094-11.931zm434.044 555.173c0 5.575-4.519 10.094-10.094 10.094H151.422c-5.575 0-10.094-4.519-10.094-10.094s4.519-10.094 10.094-10.094h302.822c5.575 0 10.094 4.519 10.094 10.094zm-66.802-30.282H208.131l20.188-40.376h149.029zm177.837-60.565H30.294c-6.022-.622-10.478-5.889-10.094-11.931V444.15h565.267v28.445c.384 6.042-4.072 11.31-10.094 11.931z"/></svg><svg viewBox="0 0 512 512" id="facebook" xmlns="http://www.w3.org/2000/svg"><path d="M222.892 388h51.491a8 8 0 008-8V264.093h26.751a8 8 0 007.958-7.18l4.51-43.772a7.997 7.997 0 00-2.019-6.179 7.997 7.997 0 00-5.939-2.641h-31.261v-17.73c0-3.662 1.159-3.936 2.928-3.936h27.682a8 8 0 008-8v-42.5a8 8 0 00-7.968-8L274.848 124c-26.752 0-41.029 11.77-48.295 21.643-10.146 13.787-11.661 29.941-11.661 38.343v20.334h-16.489a8 8 0 00-8 8v43.772a8 8 0 008 8h16.489V380a8 8 0 008 8zm-16.49-139.907v-27.772h16.489a8 8 0 008-8v-28.334c0-5.185.833-18.376 8.547-28.86 7.386-10.037 19.3-15.126 35.376-15.126l30.177.122v26.533h-19.682c-9.421 0-18.928 6.164-18.928 19.936v25.73a8 8 0 008 8h30.395l-2.862 27.772h-27.533a8 8 0 00-8 8V372H230.89V256.093a8 8 0 00-8-8h-16.488z"/><path d="M437.022 74.984C388.67 26.63 324.381 0 256 0 187.624 0 123.338 26.63 74.984 74.984S0 187.624 0 256c0 68.388 26.63 132.678 74.984 181.028C123.335 485.375 187.621 512 256 512c68.385 0 132.673-26.625 181.021-74.972C485.372 388.679 512 324.389 512 256c0-68.378-26.628-132.664-74.978-181.016zm-11.314 350.73C380.381 471.039 320.111 496 256 496c-64.106 0-124.374-24.961-169.703-70.286C40.965 380.386 16 320.113 16 256c0-64.102 24.965-124.37 70.297-169.702C131.63 40.965 191.898 16 256 16c64.108 0 124.378 24.965 169.708 70.297C471.037 131.628 496 191.896 496 256c0 64.115-24.963 124.387-70.292 169.714z"/><path d="M430.038 114.969a7.998 7.998 0 00-11.253-1.172 7.999 7.999 0 00-1.172 11.252C447.526 161.919 464 208.425 464 256c0 55.567-21.635 107.803-60.919 147.086C363.797 442.367 311.563 464 256 464c-51.26 0-100.505-18.807-138.663-52.956a8 8 0 00-10.67 11.922C147.763 459.745 200.797 480 256 480c59.837 0 116.089-23.297 158.394-65.601C456.701 372.094 480 315.84 480 256c0-51.234-17.744-101.319-49.962-141.031zM48 256c0-114.691 93.309-208 208-208 51.26 0 100.504 18.808 138.662 52.959a8 8 0 0011.296-.625 8 8 0 00-.625-11.296C364.237 52.256 311.203 32 256 32c-59.829 0-116.079 23.301-158.389 65.611C55.301 139.92 32 196.171 32 256c0 51.24 17.744 101.328 49.963 141.038a7.983 7.983 0 006.217 2.96 8 8 0 006.208-13.041C64.474 350.088 48 303.58 48 256z"/></svg><svg viewBox="0 0 512 512" id="mail" xmlns="http://www.w3.org/2000/svg"><path d="M485.743 85.333H26.257C11.815 85.333 0 97.148 0 111.589V400.41c0 14.44 11.815 26.257 26.257 26.257h459.487c14.44 0 26.257-11.815 26.257-26.257V111.589c-.001-14.441-11.816-26.256-26.258-26.256zm-9.853 19.691L271.104 258.626c-3.682 2.802-9.334 4.555-15.105 4.529-5.77.026-11.421-1.727-15.104-4.529L36.109 105.024H475.89zM366.5 268.761l111.59 137.847c.112.138.249.243.368.368H33.542c.118-.131.256-.23.368-.368L145.5 268.761a9.846 9.846 0 00-1.464-13.851c-4.227-3.419-10.424-2.771-13.844 1.457l-110.5 136.501V117.332l209.394 157.046c7.871 5.862 17.447 8.442 26.912 8.468 9.452-.02 19.036-2.6 26.912-8.468l209.394-157.046v275.534L381.807 256.367c-3.42-4.227-9.623-4.877-13.844-1.457-4.234 3.419-4.884 9.624-1.463 13.851z"/></svg><svg viewBox="0 0 512 512" id="pinterest" xmlns="http://www.w3.org/2000/svg"><path d="M437.022 74.984C388.67 26.63 324.381 0 256 0 187.624 0 123.338 26.63 74.984 74.984S0 187.624 0 256c0 68.388 26.63 132.678 74.984 181.028C123.335 485.375 187.621 512 256 512c68.385 0 132.673-26.625 181.021-74.972C485.372 388.679 512 324.389 512 256c0-68.377-26.628-132.664-74.978-181.016zm-11.314 350.73C380.381 471.039 320.111 496 256 496c-64.106 0-124.374-24.961-169.703-70.286C40.965 380.386 16 320.113 16 256c0-64.102 24.965-124.37 70.297-169.703C131.63 40.965 191.898 16 256 16c64.108 0 124.378 24.965 169.708 70.297C471.037 131.628 496 191.896 496 256c0 64.115-24.963 124.387-70.292 169.714z"/><path d="M430.038 114.969a7.998 7.998 0 00-11.253-1.172 7.999 7.999 0 00-1.172 11.252C447.526 161.919 464 208.426 464 256c0 55.567-21.635 107.803-60.919 147.085C363.797 442.367 311.563 464 256 464c-51.26 0-100.505-18.807-138.663-52.956a8 8 0 00-10.67 11.922C147.763 459.745 200.797 480 256 480c59.837 0 116.089-23.297 158.394-65.601C456.701 372.095 480 315.84 480 256c0-51.233-17.744-101.319-49.962-141.031zM48 256c0-114.691 93.309-208 208-208 51.26 0 100.504 18.808 138.662 52.959a8 8 0 0011.296-.625 8 8 0 00-.625-11.296C364.237 52.256 311.203 32 256 32c-59.829 0-116.08 23.301-158.389 65.611C55.301 139.921 32 196.171 32 256c0 51.239 17.744 101.328 49.963 141.038a7.983 7.983 0 006.217 2.96 8 8 0 006.208-13.041C64.474 350.088 48 303.58 48 256z"/><path d="M188.649 390.892l.078.527a9.896 9.896 0 007.252 8.23c.887.239 1.785.355 2.672.355 3.095 0 6.059-1.415 8.002-3.943l.29-.371c6.659-8.485 22.811-30.625 28.956-52.897 1.103-4.02 4.533-17.469 7.254-28.195 9.037 6.702 21.311 10.905 33.576 10.905 26.298 0 49.937-11.82 66.56-33.282C359.225 271.65 368 243.077 368 211.767c0-24.85-10.646-49.326-29.21-67.154-19.655-18.875-46.817-29.271-76.485-29.271-45.115 0-72.94 18.565-88.339 34.139-19.043 19.26-29.965 44.864-29.965 70.245 0 32.235 13.676 57.05 36.57 66.375 3.941 1.613 8.026 1.54 11.505-.208 3.46-1.738 5.946-4.96 6.98-8.995.355-1.331.938-3.648 1.533-6.013a518.085 518.085 0 011.627-6.375c1.916-7.225.127-11.138-3.851-15.841-5.657-6.665-8.292-14.629-8.292-25.065 0-17.535 6.462-33.882 18.196-46.03 12.577-13.021 29.793-19.903 49.787-19.903 34.672 0 56.211 19.596 56.211 51.14 0 41.53-17.979 74.061-40.931 74.061-5.677 0-10.74-2.285-13.89-6.269-2.926-3.701-3.876-8.534-2.674-13.607 1.613-6.802 3.818-13.96 5.952-20.882 4.045-13.125 7.865-25.523 7.865-35.738 0-18.625-11.569-31.139-28.788-31.139-21.181 0-37.772 21.054-37.772 47.931 0 11.66 2.846 20.738 4.549 25.126-3.037 12.86-16.625 70.407-19.261 81.521-5.213 22.029-2.656 47.722-.668 61.077zm16.24-57.386c2.971-12.528 19.866-84.084 19.866-84.084a8.128 8.128 0 00-.616-5.386c-.041-.084-4.107-8.565-4.107-20.867 0-17.905 9.563-31.931 21.772-31.931 11.126 0 12.788 9.485 12.788 15.139 0 7.805-3.476 19.084-7.156 31.025-2.21 7.171-4.495 14.586-6.229 21.905-2.354 9.935-.333 19.602 5.692 27.221 6.204 7.846 15.841 12.345 26.44 12.345 16.828 0 31.874-10.073 42.367-28.363 9.392-16.371 14.563-38.282 14.563-61.698 0-19.332-6.567-35.927-18.992-47.992-12.901-12.527-31.303-19.148-53.219-19.148-24.087 0-45.855 8.803-61.295 24.788-14.63 15.146-22.688 35.441-22.688 57.146 0 14.246 3.956 25.832 12.084 35.408.326.386.558.675.721.888-.032.135-.072.296-.122.486a532.061 532.061 0 00-1.685 6.599c-.283 1.128-.564 2.245-.817 3.24-15.454-7.631-24.255-25.852-24.255-50.5 0-21.203 9.237-42.707 25.343-58.996 13.255-13.407 37.368-29.388 76.961-29.388 25.515 0 48.742 8.812 65.402 24.811C343.146 170.979 352 191.25 352 211.767c0 27.782-7.585 52.875-21.359 70.657-13.722 17.715-32.364 27.08-53.911 27.08-14.074 0-26.848-7.754-30.612-14.938a7.999 7.999 0 00-14.843 1.756c-.09.354-8.968 35.544-10.802 42.227-3.543 12.842-11.138 25.946-17.637 35.596-1.211-15.454-.521-29.771 2.053-40.639z"/></svg><svg viewBox="0 -10 511.987 511" id="star" xmlns="http://www.w3.org/2000/svg"><path d="M114.594 491.14c-5.61 0-11.18-1.75-15.934-5.187a27.223 27.223 0 01-10.582-28.094l32.938-145.09L9.312 214.81a27.188 27.188 0 01-7.976-28.907 27.208 27.208 0 0123.402-18.71l147.797-13.419L230.97 17.027C235.277 6.98 245.089.492 255.992.492s20.715 6.488 25.024 16.512l58.433 136.77 147.774 13.417c10.882.98 20.054 8.344 23.425 18.711 3.372 10.368.254 21.739-7.957 28.907L390.988 312.75l32.938 145.086c2.414 10.668-1.727 21.7-10.578 28.098-8.832 6.398-20.61 6.89-29.91 1.3l-127.446-76.16-127.445 76.203c-4.309 2.559-9.11 3.864-13.953 3.864zm141.398-112.874c4.844 0 9.64 1.3 13.953 3.859l120.278 71.938-31.086-136.942a27.21 27.21 0 018.62-26.516l105.473-92.5-139.543-12.671a27.18 27.18 0 01-22.613-16.493L255.992 39.895 200.844 168.96c-3.883 9.195-12.524 15.512-22.547 16.43L38.734 198.062l105.47 92.5c7.554 6.614 10.858 16.77 8.62 26.54l-31.062 136.937 120.277-71.914c4.309-2.559 9.11-3.86 13.953-3.86zm-84.586-221.848s0 .023-.023.043zm169.13-.063l.023.043c0-.023 0-.023-.024-.043zm0 0"/></svg><svg viewBox="0 0 512 512" id="stars" xmlns="http://www.w3.org/2000/svg"><path d="M94.525 244.688a6.521 6.521 0 00-5.267-4.439l-24.892-3.618-11.133-22.539c-2.197-4.458-9.49-4.458-11.687 0l-11.133 22.539-24.833 3.618a6.513 6.513 0 00-5.26 4.439 6.502 6.502 0 001.656 6.681l18.003 17.501-4.243 24.769a6.536 6.536 0 002.594 6.381 6.538 6.538 0 006.87.489l22.187-11.7 22.253 11.7c.952.502 1.995.75 3.031.75a6.611 6.611 0 003.846-1.238 6.54 6.54 0 002.594-6.381l-4.243-24.769 18.003-17.501a6.508 6.508 0 001.654-6.682zM198.814 244.688a6.521 6.521 0 00-5.267-4.439l-24.892-3.618-11.133-22.539c-2.197-4.458-9.49-4.458-11.687 0l-11.133 22.539-24.834 3.618a6.513 6.513 0 00-5.26 4.439 6.502 6.502 0 001.656 6.681l18.003 17.501-4.243 24.769a6.53 6.53 0 002.594 6.381 6.538 6.538 0 006.87.489l22.187-11.7 22.253 11.7c.952.502 1.995.75 3.031.75a6.611 6.611 0 003.846-1.238 6.54 6.54 0 002.594-6.381l-4.243-24.769 18.003-17.501a6.506 6.506 0 001.655-6.682zM303.103 244.688a6.521 6.521 0 00-5.267-4.439l-24.893-3.618-11.133-22.539c-2.197-4.458-9.49-4.458-11.687 0l-11.133 22.539-24.834 3.618a6.513 6.513 0 00-5.26 4.439 6.502 6.502 0 001.656 6.681l18.003 17.501-4.243 24.769a6.53 6.53 0 002.594 6.381 6.538 6.538 0 006.87.489l22.188-11.7 22.253 11.7c.952.502 1.995.75 3.031.75a6.611 6.611 0 003.846-1.238 6.54 6.54 0 002.594-6.381l-4.243-24.769 18.003-17.501a6.506 6.506 0 001.655-6.682zM407.392 244.681a6.521 6.521 0 00-5.267-4.439l-24.892-3.618-11.133-22.538c-2.197-4.458-9.49-4.458-11.687 0l-11.133 22.539-24.834 3.618a6.513 6.513 0 00-5.26 4.439 6.502 6.502 0 001.656 6.681l18.003 17.501-4.243 24.769a6.536 6.536 0 002.594 6.381 6.54 6.54 0 006.87.489l22.188-11.7 22.253 11.7c.952.502 1.995.75 3.031.75a6.611 6.611 0 003.846-1.238 6.54 6.54 0 002.594-6.381l-4.243-24.769 18.003-17.501a6.507 6.507 0 001.654-6.683zM511.681 244.688a6.521 6.521 0 00-5.267-4.439l-24.892-3.617-11.133-22.539c-2.197-4.458-9.49-4.458-11.687 0l-11.133 22.539-24.834 3.617a6.515 6.515 0 00-5.26 4.439 6.502 6.502 0 001.656 6.681l18.003 17.501-4.243 24.769a6.536 6.536 0 002.594 6.381 6.541 6.541 0 006.87.489l22.188-11.7 22.253 11.7c.952.502 1.995.75 3.031.75a6.611 6.611 0 003.846-1.238 6.54 6.54 0 002.594-6.381l-4.243-24.769 18.003-17.501a6.508 6.508 0 001.654-6.682zm-31.222 17.227a6.522 6.522 0 00-1.884 5.775l2.594 15.135-13.603-7.15a6.457 6.457 0 00-3.031-.75 6.457 6.457 0 00-3.031.75l-13.531 7.131 2.594-15.115a6.514 6.514 0 00-1.884-5.775l-10.976-10.67 15.128-2.203a6.52 6.52 0 004.902-3.565l6.798-13.773 6.798 13.773a6.5 6.5 0 004.908 3.565l15.187 2.21-10.969 10.662z"/></svg><svg viewBox="0 0 512.008 512.008" id="tel" xmlns="http://www.w3.org/2000/svg"><path d="M511.33 141.015l-13.388-54.221c-4.55-18.431-19.521-32.735-38.141-36.442l-62.404-12.424a725.73 725.73 0 00-141.394-13.939 725.933 725.933 0 00-133.826 12.474 7.5 7.5 0 00-5.985 8.757c.766 4.07 4.692 6.755 8.757 5.984a710.962 710.962 0 01131.055-12.215c46.387 0 92.973 4.592 138.464 13.65l62.405 12.424c12.939 2.576 23.345 12.518 26.507 25.327l11.569 46.854-118.953-22.603a17.869 17.869 0 00-15.879-9.66h-10.421v-3.534c0-8.723-7.097-15.82-15.819-15.82h-25.15c-8.724 0-15.82 7.097-15.82 15.82v3.534h-73.805v-3.534c0-8.723-7.097-15.82-15.82-15.82h-25.15c-8.723 0-15.819 7.097-15.819 15.82v3.534h-10.421a17.87 17.87 0 00-15.879 9.66L17.059 137.244 28.628 90.39c3.162-12.81 13.567-22.75 26.508-25.327l35.412-7.051a7.501 7.501 0 00-2.929-14.711l-35.411 7.051c-18.62 3.707-33.592 18.011-38.142 36.442L.678 141.014a23 23 0 00.797 13.649l9.366 24.974a23.047 23.047 0 0025.922 14.587l87.276-16.504c9.361-1.77 16.776-9.261 18.45-18.642l6.546-36.708a2.897 2.897 0 012.855-2.391h10.421v59.675h-8.128c-9.458 0-17.869 5.662-21.428 14.423l-75.858 186.71a22.996 22.996 0 00-1.702 8.708v75.393c0 12.753 10.376 23.129 23.129 23.129H278.94c4.143 0 7.5-3.358 7.5-7.5s-3.357-7.5-7.5-7.5H78.325c-4.482 0-8.129-3.646-8.129-8.129v-75.393c0-1.055.201-2.083.598-3.06l75.859-186.713a8.097 8.097 0 017.531-5.069h203.641c3.324 0 6.28 1.99 7.531 5.069l27.968 68.837a7.498 7.498 0 009.771 4.125 7.5 7.5 0 004.125-9.771l-27.968-68.837c-3.559-8.762-11.97-14.423-21.428-14.423h-8.128v-59.675h10.421a2.897 2.897 0 012.855 2.391l6.546 36.708c1.674 9.38 9.089 16.872 18.45 18.642l87.276 16.505a23.05 23.05 0 0025.922-14.588l9.366-24.975a22.982 22.982 0 00.798-13.646zm-390.078 21.967l-87.276 16.504a8.08 8.08 0 01-9.09-5.115l-8.173-21.793 115.616-21.969-4.607 25.835a8.145 8.145 0 01-6.47 6.538zm171.655-43.001V136c0 .452-.368.82-.82.82h-72.164a.821.821 0 01-.82-.82v-16.02h73.804zm-115.595 59.675v-78.208a.82.82 0 01.819-.82h25.15c.452 0 .82.368.82.82V136c0 8.723 7.097 15.82 15.82 15.82h72.164c8.724 0 15.82-7.097 15.82-15.82v-34.553c0-.452.368-.82.82-.82h25.15a.82.82 0 01.819.82v78.208H177.312zm300.721-.169l-87.276-16.505a8.145 8.145 0 01-6.47-6.537l-4.607-25.836 115.616 21.969-8.173 21.794a8.082 8.082 0 01-9.09 5.115z"/><path d="M420.37 295.283c-1.56-3.836-5.933-5.688-9.771-4.125a7.5 7.5 0 00-4.125 9.771l34.742 85.511c.396.974.597 2.002.597 3.057v75.393c0 4.482-3.646 8.129-8.129 8.129H313.941c-4.143 0-7.5 3.358-7.5 7.5s3.357 7.5 7.5 7.5h119.743c12.753 0 23.129-10.375 23.129-23.129v-75.393c0-3.001-.572-5.931-1.701-8.706z"/><path d="M256.004 451.037c64.624 0 117.2-52.576 117.2-117.2s-52.576-117.2-117.2-117.2c-47.962 0-90.604 28.714-108.639 73.153a7.5 7.5 0 004.129 9.77 7.498 7.498 0 009.77-4.129c15.728-38.753 52.915-63.793 94.74-63.793 56.354 0 102.2 45.847 102.2 102.2 0 56.354-45.847 102.2-102.2 102.2s-102.2-45.847-102.2-102.2c0-2.171.069-4.375.207-6.55a7.501 7.501 0 00-14.971-.945 120.288 120.288 0 00-.236 7.495c0 64.624 52.576 117.199 117.2 117.199z"/><path d="M256.004 359.621c14.217 0 25.783-11.566 25.783-25.784 0-14.217-11.566-25.783-25.783-25.783s-25.783 11.566-25.783 25.783c0 14.218 11.566 25.784 25.783 25.784zm0-36.567c5.946 0 10.783 4.837 10.783 10.783s-4.837 10.784-10.783 10.784-10.783-4.837-10.783-10.784c0-5.946 4.837-10.783 10.783-10.783zM256.004 292.234c12.201 0 22.127-9.926 22.127-22.126s-9.926-22.127-22.127-22.127-22.127 9.926-22.127 22.127 9.926 22.126 22.127 22.126zm0-29.254c3.93 0 7.127 3.197 7.127 7.127s-3.197 7.126-7.127 7.126-7.127-3.197-7.127-7.126 3.198-7.127 7.127-7.127zM200.814 324.099c12.201 0 22.127-9.926 22.127-22.126s-9.926-22.127-22.127-22.127-22.127 9.926-22.127 22.127 9.926 22.126 22.127 22.126zm0-29.254c3.93 0 7.127 3.197 7.127 7.127s-3.197 7.126-7.127 7.126-7.127-3.197-7.127-7.126 3.197-7.127 7.127-7.127zM200.814 387.829c12.201 0 22.127-9.926 22.127-22.126s-9.926-22.127-22.127-22.127-22.127 9.926-22.127 22.127 9.926 22.126 22.127 22.126zm0-29.253c3.93 0 7.127 3.197 7.127 7.127s-3.197 7.126-7.127 7.126-7.127-3.197-7.127-7.126 3.197-7.127 7.127-7.127zM256.004 419.695c12.201 0 22.127-9.926 22.127-22.126s-9.926-22.127-22.127-22.127-22.127 9.926-22.127 22.127 9.926 22.126 22.127 22.126zm0-29.254c3.93 0 7.127 3.197 7.127 7.127s-3.197 7.126-7.127 7.126-7.127-3.197-7.127-7.126 3.198-7.127 7.127-7.127zM311.194 387.829c12.201 0 22.127-9.926 22.127-22.126s-9.926-22.127-22.127-22.127-22.127 9.926-22.127 22.127 9.926 22.126 22.127 22.126zm0-29.253c3.93 0 7.127 3.197 7.127 7.127s-3.197 7.126-7.127 7.126-7.127-3.197-7.127-7.126 3.198-7.127 7.127-7.127zM311.194 324.131c12.201 0 22.127-9.926 22.127-22.126s-9.926-22.127-22.127-22.127-22.127 9.926-22.127 22.127 9.926 22.126 22.127 22.126zm0-29.253c3.93 0 7.127 3.197 7.127 7.127s-3.197 7.126-7.127 7.126-7.127-3.197-7.127-7.126 3.198-7.127 7.127-7.127zM95.605 430.137c-4.143 0-7.5 3.358-7.5 7.5s3.357 7.5 7.5 7.5h43.908c4.143 0 7.5-3.358 7.5-7.5s-3.357-7.5-7.5-7.5z"/></svg><svg viewBox="0 0 512 512" id="twitter" xmlns="http://www.w3.org/2000/svg"><path d="M437.022 74.984C388.67 26.63 324.381 0 256 0 187.624 0 123.338 26.63 74.984 74.984S0 187.624 0 256c0 68.388 26.63 132.678 74.984 181.028C123.335 485.375 187.621 512 256 512c68.385 0 132.673-26.625 181.021-74.972C485.372 388.679 512 324.389 512 256c0-68.377-26.628-132.664-74.978-181.016zm-11.314 350.73C380.381 471.039 320.111 496 256 496c-64.106 0-124.374-24.961-169.703-70.286C40.965 380.386 16 320.113 16 256c0-64.102 24.965-124.37 70.297-169.703C131.63 40.965 191.898 16 256 16c64.108 0 124.378 24.965 169.708 70.297C471.037 131.628 496 191.896 496 256c0 64.115-24.963 124.387-70.292 169.714z"/><path d="M430.038 114.969a7.999 7.999 0 00-11.253-1.172 7.999 7.999 0 00-1.172 11.252C447.526 161.919 464 208.426 464 256c0 55.567-21.635 107.803-60.919 147.085C363.797 442.367 311.563 464 256 464c-51.26 0-100.505-18.807-138.663-52.956a8 8 0 00-10.67 11.922C147.763 459.745 200.797 480 256 480c59.837 0 116.089-23.297 158.394-65.601C456.701 372.095 480 315.84 480 256c0-51.233-17.744-101.319-49.962-141.031zM48 256c0-114.691 93.309-208 208-208 51.26 0 100.504 18.808 138.662 52.959a8 8 0 0011.296-.625 8 8 0 00-.625-11.296C364.237 52.256 311.203 32 256 32c-59.829 0-116.08 23.301-158.389 65.611C55.301 139.921 32 196.171 32 256c0 51.239 17.744 101.328 49.963 141.038a7.983 7.983 0 006.217 2.96 8 8 0 006.208-13.041C64.474 350.088 48 303.58 48 256z"/><path d="M398.655 194.764a8 8 0 00-9.89-11.757c-.204.09-.408.18-.612.268a58.67 58.67 0 004.63-10.676 7.999 7.999 0 00-11.702-9.32 93.353 93.353 0 01-25.726 10.498c-10.798-9.778-25.002-15.307-39.646-15.307-32.47 0-58.887 26.402-58.887 58.855 0 .928.021 1.854.063 2.776-34.859-4.249-67.035-21.913-89.417-49.384a8 8 0 00-13.114 1.026c-5.214 8.949-7.97 19.185-7.97 29.602a58.937 58.937 0 007.052 28.008 8 8 0 00-7.47 7.983v.636c0 17.624 7.908 33.796 20.616 44.719a8 8 0 00-2.395 8.497c5.467 17.082 18.25 30.333 34.264 36.714-13.001 6.537-27.355 9.933-42.315 9.933-3.772 0-7.544-.216-11.211-.643a7.999 7.999 0 00-5.244 14.68A152.178 152.178 0 00221.996 376c57.454 0 93.424-27.125 113.482-49.88 24.968-28.326 39.288-65.827 39.288-102.89 0-.914-.007-1.804-.022-2.676a110.46 110.46 0 0023.911-25.79zm-36.724 15.406a8.002 8.002 0 00-3.311 6.883c.097 1.97.145 3.99.145 6.177 0 33.221-12.863 66.866-35.29 92.31C305.597 335.822 273.479 360 221.996 360c-15.75 0-31.25-2.705-45.896-7.938 17.51-3.161 33.891-10.506 48.153-21.695a8 8 0 00-4.788-14.293 42.895 42.895 0 01-34.527-18.535 59.487 59.487 0 0011.91-1.951 8 8 0 00-.501-15.565c-15.937-3.219-28.377-15.183-32.716-30.254a59.173 59.173 0 0013.119 1.932 8 8 0 004.708-14.65c-11.942-7.97-19.071-21.318-19.071-35.707 0-3.646.462-7.259 1.363-10.751 26.808 27.682 63.308 44.387 101.994 46.315a8.002 8.002 0 008.189-9.809 43.065 43.065 0 01-1.108-9.775c0-23.63 19.239-42.855 42.887-42.855 11.804 0 23.217 4.931 31.314 13.527a8.002 8.002 0 007.358 2.367 109.068 109.068 0 008.986-2.156 43.194 43.194 0 01-4.696 3.25 8 8 0 00-3.463 9.442 7.995 7.995 0 008.506 5.367c1.303-.153 2.602-.329 3.897-.529a96.1 96.1 0 01-5.683 4.433z"/></svg></svg>